<svg xmlns="http://www.w3.org/2000/svg" viewBox="0 0 86.16 37.33"><defs><style>.cls-1{fill:#231f20;}.cls-2{fill:none;}.cls-3{fill:#0998cc;}.cls-4{fill:#ffcd05;}</style></defs><g id="Layer_1" data-name="Layer 1"><path class="cls-1" d="M52.25,59.1V56.75h1.2V56a4.63,4.63,0,0,1,.17-1.33,1.88,1.88,0,0,1,.54-.88,2.19,2.19,0,0,1,1-.5,6.58,6.58,0,0,1,1.53-.15l.82,0a7.66,7.66,0,0,1,.85.08v2.19l-.26,0h-.32a1,1,0,0,0-.59.18.65.65,0,0,0-.25.56v.64h1.42V59.1H56.94v8.14H53.45V59.1Z" transform="translate(-14.8 -39.82)"/><path class="cls-1" d="M62.79,53.4V56H59.31V53.4Zm0,3.35V67.24H59.31V56.75Z" transform="translate(-14.8 -39.82)"/><path class="cls-1" d="M67.72,56.75v1.67h0A2.74,2.74,0,0,1,68.69,57a2.22,2.22,0,0,1,1.41-.49h.56v3.26l-.44-.06a3.1,3.1,0,0,0-.43,0,2.26,2.26,0,0,0-1.44.4,1.79,1.79,0,0,0-.52,1.46v5.72H64.35V56.75Z" transform="translate(-14.8 -39.82)"/><path class="cls-1" d="M74.64,64a1.55,1.55,0,0,0,.29,1.13.91.91,0,0,0,.66.29.82.82,0,0,0,.72-.38,2.7,2.7,0,0,0,.27-1.45h3.13a4.14,4.14,0,0,1-1,2.92,4.24,4.24,0,0,1-3.12,1,6.81,6.81,0,0,1-2.12-.28,2.9,2.9,0,0,1-1.37-.93,4,4,0,0,1-.75-1.7A12.3,12.3,0,0,1,71.15,62a11.08,11.08,0,0,1,.25-2.56,4.26,4.26,0,0,1,.79-1.7,3.17,3.17,0,0,1,1.39-1,6.08,6.08,0,0,1,2-.3,6,6,0,0,1,1.83.25,3.06,3.06,0,0,1,1.32.84,3.83,3.83,0,0,1,.79,1.56,9.36,9.36,0,0,1,.26,2.39v1.06H74.64Zm1.71-5a.93.93,0,0,0-1.51,0,2.69,2.69,0,0,0-.2,1.22v.47h1.92v-.47A2.67,2.67,0,0,0,76.35,59Z" transform="translate(-14.8 -39.82)"/><path class="cls-1" d="M80.28,59.1V56.75h1.2V56a4.65,4.65,0,0,1,.16-1.33,1.82,1.82,0,0,1,.55-.88,2.21,2.21,0,0,1,1-.5,6.7,6.7,0,0,1,1.53-.15l.83,0a7.48,7.48,0,0,1,.84.08v2.19l-.26,0H85.8a1,1,0,0,0-.58.18.63.63,0,0,0-.25.56v.64h1.41V59.1H85v8.14H81.48V59.1Z" transform="translate(-14.8 -39.82)"/><path class="cls-1" d="M90.82,53.4V67.24H87.33V53.4Z" transform="translate(-14.8 -39.82)"/><path class="cls-1" d="M93.13,68.13l.38,0a1.52,1.52,0,0,0,.56-.1,1.57,1.57,0,0,0,.36-.22.86.86,0,0,0,.19-.26.61.61,0,0,0,.06-.22,1.6,1.6,0,0,0-.05-.31c0-.13-.07-.26-.11-.4l-2.75-9.89h3.59l1.06,7.08h0l1-7.08H101L98.15,67.53a8,8,0,0,1-.54,1.5,3.06,3.06,0,0,1-.71.94,2.42,2.42,0,0,1-1,.48,5.22,5.22,0,0,1-1.24.14l-1,0c-.32,0-.62,0-.92-.06V68.07C92.87,68.1,93,68.11,93.13,68.13Z" transform="translate(-14.8 -39.82)"/></g><g id="Layer_3" data-name="Layer 3"><path class="cls-1" d="M38.3,50.91l-6.36-3.06.16-.35a4.71,4.71,0,0,1,2.23-2.28,3.27,3.27,0,0,1,2.77,0h0l0,0h0a3.25,3.25,0,0,1,1.71,2.18,4.71,4.71,0,0,1-.39,3.16ZM33,47.5l5,2.37a3.77,3.77,0,0,0,.18-2.28,2.41,2.41,0,0,0-3.46-1.66A3.75,3.75,0,0,0,33,47.5Z" transform="translate(-14.8 -39.82)"/><path class="cls-2" d="M30,59.94a9.08,9.08,0,0,1-2.21,1.4,14.81,14.81,0,0,1-5,1.21,12,12,0,0,0,0,2.53A7.37,7.37,0,0,0,23.68,68a3.71,3.71,0,0,0,4.19,1.92,7.24,7.24,0,0,0,2.76-1.25,12,12,0,0,0,1.82-1.57,14.67,14.67,0,0,1-2.11-4.55A9.35,9.35,0,0,1,30,59.94Z" transform="translate(-14.8 -39.82)"/><path d="M47.72,58.89a4.39,4.39,0,0,0-1.2-2.24,16.73,16.73,0,0,0-7.3-4.51,8.27,8.27,0,0,0-3.44-.26,4.92,4.92,0,0,0-2.31.94,5.07,5.07,0,0,0-.71-2.4,8.52,8.52,0,0,0-2.35-2.52A16.75,16.75,0,0,0,22.33,45a4.37,4.37,0,0,0-2.5.46A5.4,5.4,0,0,0,18,47.12,8.8,8.8,0,0,0,16.68,50l-.06.08a10,10,0,0,0-1,9.69,5.3,5.3,0,0,0,1.46,1.84,4.07,4.07,0,0,0,.77.47,4.65,4.65,0,0,0,1.49.42,19.14,19.14,0,0,0,2.5.1,13.1,13.1,0,0,0,0,2.58,8.29,8.29,0,0,0,1,3.32,5,5,0,0,0,2.15,2.08l.07,0a4.86,4.86,0,0,0,3.06.31,8.38,8.38,0,0,0,3.14-1.41A14,14,0,0,0,33.05,68a20.42,20.42,0,0,0,1.69,2,4.66,4.66,0,0,0,1.25.9,4.29,4.29,0,0,0,.85.3,5,5,0,0,0,2.35,0,10,10,0,0,0,6.94-6.83.29.29,0,0,0,0-.09,8.72,8.72,0,0,0,1.44-2.83A5.32,5.32,0,0,0,47.72,58.89ZM17.39,51.75a10.51,10.51,0,0,1,.21-1.27,9,9,0,0,1,.64-1.81,6.83,6.83,0,0,1,.57-1A3.71,3.71,0,0,1,22.22,46a17.35,17.35,0,0,1,5.65,1.54,12.15,12.15,0,0,1,1.93,1.15,7.53,7.53,0,0,1,2.08,2.21,4,4,0,0,1,.56,2.38,3.72,3.72,0,0,1-.56,1.57l-.06.1a3.57,3.57,0,0,1-.42.54l-.18.19a2.37,2.37,0,0,1-.28.27,8,8,0,0,1-2,1.28,14.18,14.18,0,0,1-5.05,1.15c-.36,0-.72,0-1.09,0-.61,0-1.22,0-1.83-.1A3.7,3.7,0,0,1,18,56,8.48,8.48,0,0,1,17.39,51.75Zm2,9.73a3.28,3.28,0,0,1-1.74-.68,4.16,4.16,0,0,1-1.16-1.48,8.38,8.38,0,0,1-.66-4.42,9.89,9.89,0,0,1,.45-2.07A8.85,8.85,0,0,0,17,56.4a5.39,5.39,0,0,0,1.47,2,4.29,4.29,0,0,0,2.35,1c.54.06,1.08.09,1.61.1h1.06a15.45,15.45,0,0,0,5.83-1.26,10.27,10.27,0,0,0,1.32-.72,4.36,4.36,0,0,1-.77,1.2,7.31,7.31,0,0,1-2.49,1.74,13.8,13.8,0,0,1-4.4,1.1c-.34,0-.69.06-1,.07A19.74,19.74,0,0,1,19.43,61.48Zm11.2,7.19a7.24,7.24,0,0,1-2.76,1.25A3.71,3.71,0,0,1,23.68,68a7.37,7.37,0,0,1-.85-2.92,12,12,0,0,1,0-2.53,14.81,14.81,0,0,0,5-1.21A9.08,9.08,0,0,0,30,59.94a9.35,9.35,0,0,0,.3,2.61,14.67,14.67,0,0,0,2.11,4.55A12,12,0,0,1,30.63,68.67Zm12.2-.81A8.36,8.36,0,0,1,39,70.11a4.12,4.12,0,0,1-1.88,0,3.32,3.32,0,0,1-1.62-.93,17,17,0,0,1-1.72-2c-.21-.28-.41-.57-.6-.86a13.4,13.4,0,0,1-1.82-4,7.45,7.45,0,0,1-.2-3,4.39,4.39,0,0,1,.46-1.35,10.48,10.48,0,0,0,.26,1.48,15.27,15.27,0,0,0,2.55,5.19c.21.29.44.57.67.85.37.45.76.89,1.18,1.32a4.56,4.56,0,0,0,1.26.9,4,4,0,0,0,1,.33,5.21,5.21,0,0,0,2.47-.09,8.94,8.94,0,0,0,3.23-1.68A9.73,9.73,0,0,1,42.83,67.86Zm3.77-6.78a6.23,6.23,0,0,1-.38,1,9,9,0,0,1-1,1.63,10.82,10.82,0,0,1-.85,1,8.44,8.44,0,0,1-3.66,2.2A4,4,0,0,1,38,66.74a3.45,3.45,0,0,1-1-.7,18.93,18.93,0,0,1-1.34-1.52c-.24-.29-.46-.59-.67-.89a14,14,0,0,1-2.13-4.48,8.14,8.14,0,0,1-.26-2.38c0-.13,0-.26,0-.38a2.51,2.51,0,0,1,0-.27,4.54,4.54,0,0,1,.16-.66.36.36,0,0,1,0-.11,3.63,3.63,0,0,1,.88-1.42,3.89,3.89,0,0,1,2.2-1,7.34,7.34,0,0,1,3,.24,12.28,12.28,0,0,1,2.1.79,17.17,17.17,0,0,1,4.73,3.45A3.67,3.67,0,0,1,46.6,61.08Z" transform="translate(-14.8 -39.82)"/><path class="cls-3" d="M33,47.5l5,2.37a3.77,3.77,0,0,0,.18-2.28,2.41,2.41,0,0,0-3.46-1.66A3.75,3.75,0,0,0,33,47.5Z" transform="translate(-14.8 -39.82)"/><path class="cls-3" d="M42.83,67.86A8.36,8.36,0,0,1,39,70.11a4.12,4.12,0,0,1-1.88,0,3.32,3.32,0,0,1-1.62-.93,17,17,0,0,1-1.72-2c-.21-.28-.41-.57-.6-.86a13.4,13.4,0,0,1-1.82-4,7.45,7.45,0,0,1-.2-3,4.39,4.39,0,0,1,.46-1.35,10.48,10.48,0,0,0,.26,1.48,15.27,15.27,0,0,0,2.55,5.19c.21.29.44.57.67.85.37.45.76.89,1.18,1.32a4.56,4.56,0,0,0,1.26.9,4,4,0,0,0,1,.33,5.21,5.21,0,0,0,2.47-.09,8.94,8.94,0,0,0,3.23-1.68A9.73,9.73,0,0,1,42.83,67.86Z" transform="translate(-14.8 -39.82)"/><path class="cls-3" d="M19.43,61.48a3.28,3.28,0,0,1-1.74-.68,4.16,4.16,0,0,1-1.16-1.48,8.38,8.38,0,0,1-.66-4.42,9.89,9.89,0,0,1,.45-2.07A8.85,8.85,0,0,0,17,56.4a5.39,5.39,0,0,0,1.47,2,4.29,4.29,0,0,0,2.35,1c.54.06,1.08.09,1.61.1h1.06a15.45,15.45,0,0,0,5.83-1.26,10.27,10.27,0,0,0,1.32-.72,4.36,4.36,0,0,1-.77,1.2,7.31,7.31,0,0,1-2.49,1.74,13.8,13.8,0,0,1-4.4,1.1c-.34,0-.69.06-1,.07A19.74,19.74,0,0,1,19.43,61.48Z" transform="translate(-14.8 -39.82)"/><path class="cls-4" d="M17.39,51.75a10.51,10.51,0,0,1,.21-1.27,9,9,0,0,1,.64-1.81,6.83,6.83,0,0,1,.57-1A3.71,3.71,0,0,1,22.22,46a17.35,17.35,0,0,1,5.65,1.54,12.15,12.15,0,0,1,1.93,1.15,7.53,7.53,0,0,1,2.08,2.21,4,4,0,0,1,.56,2.38,3.72,3.72,0,0,1-.56,1.57l-.06.1a3.57,3.57,0,0,1-.42.54l-.18.19a2.37,2.37,0,0,1-.28.27,8,8,0,0,1-2,1.28,14.18,14.18,0,0,1-5.05,1.15c-.36,0-.72,0-1.09,0-.61,0-1.22,0-1.83-.1A3.7,3.7,0,0,1,18,56,8.48,8.48,0,0,1,17.39,51.75Z" transform="translate(-14.8 -39.82)"/><path class="cls-4" d="M30.63,68.67a7.24,7.24,0,0,1-2.76,1.25A3.71,3.71,0,0,1,23.68,68a7.37,7.37,0,0,1-.85-2.92,12,12,0,0,1,0-2.53,14.81,14.81,0,0,0,5-1.21A9.08,9.08,0,0,0,30,59.94a9.35,9.35,0,0,0,.3,2.61,14.67,14.67,0,0,0,2.11,4.55A12,12,0,0,1,30.63,68.67Z" transform="translate(-14.8 -39.82)"/><path class="cls-4" d="M44.33,64.73a10.77,10.77,0,0,1-1,.83,8.11,8.11,0,0,1-1.65,1,6.5,6.5,0,0,1-1,.37A3.66,3.66,0,0,1,37,66a17,17,0,0,1-3.37-4.79,12.23,12.23,0,0,1-.75-2.12,7.44,7.44,0,0,1-.19-3,4,4,0,0,1,1.09-2.18,3.78,3.78,0,0,1,1.43-.86l.11,0c.22-.06.44-.11.67-.15l.26,0,.4,0a7.76,7.76,0,0,1,2.36.3,14,14,0,0,1,4.62,2.34c.29.22.58.44.86.68a17.41,17.41,0,0,1,1.34,1.25,3.69,3.69,0,0,1,.81,3.72A8.59,8.59,0,0,1,44.33,64.73Z" transform="translate(-14.8 -39.82)"/><path class="cls-1" d="M37.24,43.87H34.36l0-4h2.88Zm-2.3-.59h1.73V40.41H35Z" transform="translate(-14.8 -39.82)"/><path class="cls-1" d="M40.2,46.81l-1.64-2.38,3.33-2.28,1.63,2.37Zm-.84-2.23,1,1.43,2.37-1.64-1-1.42Z" transform="translate(-14.8 -39.82)"/><path class="cls-1" d="M26.53,77.15l-.15-4,2.88-.1.15,4ZM27,73.67l.11,2.88,1.72-.06-.1-2.88Z" transform="translate(-14.8 -39.82)"/><path class="cls-1" d="M17.73,72.72l-1.31-2.57L20,68.32l1.3,2.57Zm-.53-2.31L18,72l2.57-1.31-.79-1.54Z" transform="translate(-14.8 -39.82)"/><path class="cls-1" d="M23.18,76.4l-2.55-1.34,1.89-3.57,2.55,1.35Zm-1.77-1.58,1.53.81,1.35-2.55-1.53-.81Z" transform="translate(-14.8 -39.82)"/><rect class="cls-4" x="20.15" y="0.58" width="1.72" height="2.89"/><rect class="cls-4" x="39.6" y="43.61" width="2.88" height="1.73" transform="translate(-32.79 -8.7) rotate(-34.56)"/><rect class="cls-4" x="27.03" y="73.64" width="1.73" height="2.88" transform="translate(-17.51 -38.76) rotate(-2.08)"/><rect class="cls-4" x="21.41" y="73.08" width="2.88" height="1.73" transform="translate(-67.99 19.69) rotate(-62.08)"/><rect class="cls-4" x="17.43" y="69.66" width="2.88" height="1.73" transform="translate(-44.78 -23.55) rotate(-27.03)"/></g></svg>